# xmcd
#
# Track frame offsets:
#	150
#	18030
#	34820
#	48640
#	63392
#	77960
#	93435
#	105290
#	124445
#	142660
#
# Disc length: 2095 seconds
#
# Revision: 0
# Processed by: cddbd v1.5PL3 Copyright (c) Steve Scherf et al.
# Submitted via: audiograbber 1.83.01
#
DISCID=7b082d0a
DTITLE=Dolly Parton - The Encore Collection
DYEAR=1900
DGENRE=Country
TTITLE0=Starting All Over Again
TTITLE1=Single Women
TTITLE2=It's All Wrong, But It's All Right
TTITLE3=Working Girl
TTITLE4=But You Know I Love You
TTITLE5=Old Flames (Can't Hold A Candle To You)
TTITLE6=Baby, I'm Burnin'
TTITLE7=God Won't Get You
TTITLE8=The House Of The Rising Sun
TTITLE9=Potential New Boyfriend
EXTD=
EXTT0=
EXTT1=
EXTT2=
EXTT3=
EXTT4=
EXTT5=
EXTT6=
EXTT7=
EXTT8=
EXTT9=
PLAYORDER=
